<svg width="0" height="0"><symbol xmlns="http://www.w3.org/2000/svg" id="check" fill="none" viewBox="0 0 24 24"><path fill="currentColor" fill-rule="evenodd" d="M18.03 7.97a.75.75 0 0 1 0 1.06l-7 7a.75.75 0 0 1-1.06 0l-4-4a.75.75 0 1 1 1.06-1.06l3.47 3.47 6.47-6.47a.75.75 0 0 1 1.06 0Z" clip-rule="evenodd"/></symbol><symbol xmlns="http://www.w3.org/2000/svg" id="chevron" fill="inherit" viewBox="0 0 24 24"><path d="M15.125 21.1 6.7 12.7a.871.871 0 0 1-.212-.325A1.098 1.098 0 0 1 6.425 12a1.1 1.1 0 0 1 .063-.375.872.872 0 0 1 .212-.325l8.425-8.425c.233-.233.525-.35.875-.35s.65.125.9.375.375.542.375.875a1.2 1.2 0 0 1-.375.875L9.55 12l7.35 7.35c.233.233.35.52.35.862 0 .342-.125.638-.375.888a1.2 1.2 0 0 1-.875.375 1.2 1.2 0 0 1-.875-.375Z"/></symbol></svg>